# xmcd CD database file
#
# Track frame offsets:
#	150
#	22822
#	40080
#	62340
#	84112
#	102557
#	117740
#	139800
#	158420
#	178537
#
# Disc length: 2647 seconds
#
# Revision: 0
# Processed by: cddbd v1.5.2PL0 Copyright (c) Steve Scherf et al.
# Submitted via: CDex 1.70beta2
#
DISCID=720a550a
DTITLE=Mauricio Silva - Con Furia
DYEAR=1992
DGENRE=Salsa
TTITLE0=Mia
TTITLE1=Sobraron las Palabras
TTITLE2=Cuando Regreses a Casa
TTITLE3=En un rincon del Alma
TTITLE4=Cachaca
TTITLE5=Pideme
TTITLE6=Cada Vez
TTITLE7=Nunca me Fui
TTITLE8=Por que es tan Cruel el Amor
TTITLE9=Desde que no estas Aqui
EXTD=YEAR: 1992
EXTT0=
EXTT1=
EXTT2=
EXTT3=
EXTT4=
EXTT5=
EXTT6=
EXTT7=
EXTT8=
EXTT9=
PLAYORDER=
